<svg version="1.0" xmlns="http://www.w3.org/2000/svg"
 width="80.000000pt" height="80.000000pt" viewBox="0 0 168.000000 168.000000"
 preserveAspectRatio="xMidYMid meet">

<g transform="translate(0.000000,168.000000) scale(0.100000,-0.100000)"
fill="#000000" stroke="none">
<path d="M463 1543 c-27 -27 -54 -62 -61 -79 -9 -21 -24 -34 -50 -43 -20 -7
-62 -24 -94 -38 l-56 -25 -7 -105 c-17 -240 26 -502 111 -682 70 -150 181
-246 431 -375 39 -21 79 -46 89 -57 16 -18 18 -18 53 10 20 16 70 45 111 66
322 160 446 340 496 719 15 115 16 407 1 422 -3 3 -43 22 -90 42 -74 32 -90
43 -119 86 -18 27 -47 60 -65 73 l-31 24 15 -51 c8 -28 13 -53 11 -55 -2 -3
-69 10 -148 26 -181 39 -252 39 -430 1 -74 -16 -137 -28 -139 -26 -2 2 3 29
11 59 8 30 14 55 12 55 -1 0 -25 -21 -51 -47z m11 -181 c19 -37 81 -82 113
-82 13 0 23 -4 23 -10 0 -27 -81 -2 -124 38 -25 23 -27 24 -17 5 14 -27 57
-62 88 -69 12 -4 23 -8 23 -11 0 -13 -32 -63 -41 -63 -21 0 -67 30 -92 59 -51
61 -56 122 -19 215 l16 41 7 -46 c4 -25 14 -60 23 -77z m581 63 c126 -28 147
-37 128 -56 -9 -9 -32 -7 -93 5 -44 9 -98 16 -120 16 -22 0 -40 5 -40 10 0 6
-35 10 -85 10 -50 0 -85 -4 -85 -10 0 -5 -18 -10 -40 -10 -23 0 -75 -7 -117
-16 -63 -13 -77 -13 -84 -2 -5 7 -9 16 -9 19 0 3 62 20 138 37 165 38 231 37
407 -3z m225 -39 c13 -58 0 -112 -36 -156 -25 -29 -53 -43 -38 -18 4 7 3 8 -5
4 -6 -4 -9 -12 -6 -17 4 -5 -6 -14 -21 -19 -39 -15 -54 10 -16 26 40 16 90 78
98 119 3 20 4 59 2 87 -6 59 6 44 22 -26z m-383 -20 c2 -2 1 -107 -4 -233 l-8
-228 -40 0 -40 0 -3 229 c-2 177 1 232 10 238 12 8 75 4 85 -6z m494 -72 c-31
-22 -61 -9 -61 27 l0 29 41 -21 c40 -20 41 -21 20 -35z m-1031 22 c0 -31 -32
-43 -61 -22 -21 14 -21 14 7 30 41 22 54 20 54 -8z m420 -126 l0 -150 -30 0
-30 0 0 63 c0 34 4 79 9 99 5 21 5 36 0 33 -10 -7 -49 -130 -49 -157 0 -23
-24 -18 -77 14 l-33 19 22 42 c46 93 134 185 176 187 9 0 12 -36 12 -150z
m209 110 c28 -22 51 -45 51 -51 0 -6 -5 -7 -12 -2 -7 4 -15 8 -18 8 -9 0 -90
71 -90 78 0 15 21 5 69 -33z m-686 -238 c8 -263 30 -358 117 -496 57 -91 139
-162 258 -225 55 -30 114 -65 129 -77 51 -40 17 -35 -58 9 -41 24 -105 61
-144 82 -96 52 -197 155 -234 237 -65 143 -101 340 -101 557 0 112 2 132 14
122 10 -9 15 -59 19 -209z m883 183 c-33 -27 -63 -37 -71 -25 -3 5 10 13 29
20 19 6 40 18 47 26 6 8 15 12 18 8 3 -3 -7 -16 -23 -29z m234 -111 c0 -226
-41 -431 -113 -567 -43 -81 -142 -171 -262 -236 -55 -30 -119 -67 -142 -83
-33 -22 -43 -25 -43 -14 0 18 48 50 170 115 122 64 223 167 278 281 22 47 47
117 56 156 23 104 38 297 31 386 -4 42 -4 82 0 87 19 31 25 0 25 -125z m-377
102 c9 10 39 -44 31 -57 -4 -7 -3 -9 3 -6 11 7 33 -33 33 -59 0 -20 -92 -62
-150 -68 l-45 -6 38 10 c20 5 55 19 76 29 21 11 41 17 44 14 6 -6 -4 35 -19
72 -4 11 -16 32 -26 47 -21 31 -24 45 -5 29 8 -6 16 -8 20 -5z m-409 -179 c32
-15 78 -30 102 -34 41 -5 44 -8 44 -36 l0 -30 -52 6 c-29 4 -77 19 -108 34
-48 25 -55 32 -58 62 -2 18 0 31 5 29 4 -2 34 -16 67 -31z m496 -30 c-10 -9
-12 -8 -7 5 3 9 -1 22 -9 29 -12 10 -12 14 -2 20 19 12 35 -39 18 -54z m-22
-12 c-2 -1 -18 -10 -37 -20 -23 -12 -31 -13 -26 -3 18 29 27 36 46 31 11 -3
18 -7 17 -8z m-563 -38 c-16 -33 -51 -55 -115 -72 l-25 -7 20 21 c23 24 128
99 133 95 2 -1 -4 -18 -13 -37z m658 -29 c-2 -4 2 -6 9 -3 7 2 29 -9 48 -26
l35 -30 -40 21 c-22 11 -45 20 -51 20 -14 0 -64 56 -64 72 0 5 15 -3 34 -19
18 -15 31 -31 29 -35z m-193 22 c-14 -4 -36 -8 -50 -8 l-25 0 25 8 c14 4 36 8
50 8 l25 0 -25 -8z m-454 -65 l-27 -46 49 36 49 35 7 -31 c13 -65 6 -107 -30
-184 -22 -45 -39 -99 -43 -133 l-6 -56 -27 33 c-37 44 -38 109 -3 175 l25 48
-30 -22 c-32 -23 -59 -67 -70 -115 l-7 -30 -18 40 c-48 109 -22 188 85 259 36
23 67 41 69 40 2 -2 -9 -24 -23 -49z m613 -73 c4 -10 11 -30 15 -47 5 -26 5
-27 -5 -10 -7 11 -32 41 -56 67 -23 26 -43 52 -43 58 0 14 77 -46 89 -68z m69
40 c29 -19 52 -63 51 -99 0 -15 -11 -55 -24 -88 l-24 -60 0 83 c-1 93 -7 110
-59 165 l-37 38 35 -12 c19 -7 45 -19 58 -27z m-410 -67 c12 -11 -11 -35 -60
-62 -65 -38 -88 -61 -98 -106 l-7 -35 44 34 c25 19 48 32 53 29 4 -2 10 -17
13 -32 4 -16 17 -41 31 -58 l25 -30 1 30 c0 39 10 75 20 75 4 0 13 -21 19 -47
13 -50 8 -105 -15 -159 -18 -43 -18 -85 1 -110 24 -31 17 -36 -22 -15 -53 26
-91 64 -99 97 -4 17 -1 53 9 88 9 33 14 62 13 64 -2 2 -18 -22 -36 -53 -26
-46 -31 -62 -25 -92 l7 -37 -33 25 c-72 56 -93 158 -51 253 45 100 117 162
176 151 16 -3 32 -7 34 -10z m130 -11 c12 -8 32 -33 43 -56 l20 -40 -23 7
c-46 15 -119 56 -113 65 3 5 0 12 -6 16 -8 5 -9 3 -4 -7 8 -12 6 -12 -9 0 -13
11 -14 16 -4 22 21 14 72 10 96 -7z m178 -56 c33 -36 44 -63 44 -108 0 -48
-16 -84 -33 -74 -7 4 -9 4 -5 -1 4 -4 3 -14 -3 -22 -20 -23 -28 -14 -13 15 7
15 14 52 14 83 0 44 -6 64 -30 102 -32 50 -17 53 26 5z m-256 -3 c11 -13 5
-15 -46 -15 -54 1 -57 2 -40 15 26 19 70 19 86 0z m209 -190 c0 -16 -8 -48
-19 -70 -11 -22 -17 -29 -13 -15 4 14 6 59 6 100 0 70 1 73 13 45 7 -16 13
-43 13 -60z m-75 -11 c0 -45 -5 -60 -37 -107 -20 -29 -48 -64 -62 -77 l-24
-23 -11 27 c-14 39 -4 67 50 142 27 35 52 79 55 96 7 28 9 29 18 13 5 -10 10
-42 11 -71z"/>
<path d="M825 1320 c-4 -7 -3 -16 3 -22 14 -14 45 -2 40 15 -6 16 -34 21 -43
7z"/>
<path d="M831 1246 c-9 -10 -8 -16 3 -25 10 -9 16 -8 25 3 9 10 8 16 -3 25
-10 9 -16 8 -25 -3z"/>
<path d="M830 1150 c0 -15 5 -20 18 -18 9 2 17 10 17 18 0 8 -8 16 -17 18 -13
2 -18 -3 -18 -18z"/>
<path d="M830 1070 c0 -15 5 -20 18 -18 9 2 17 10 17 18 0 8 -8 16 -17 18 -13
2 -18 -3 -18 -18z"/>
<path d="M827 992 c-16 -18 -16 -20 3 -37 19 -18 22 -18 38 -2 13 13 14 21 6
34 -15 25 -28 26 -47 5z"/>
<path d="M582 1044 c4 -21 22 -23 26 -1 2 10 -3 17 -13 17 -10 0 -15 -6 -13
-16z"/>
<path d="M642 1013 c4 -21 33 -25 33 -3 0 8 -8 16 -18 18 -14 3 -18 -1 -15
-15z m28 -3 c0 -5 -4 -10 -10 -10 -5 0 -10 5 -10 10 0 6 5 10 10 10 6 0 10 -4
10 -10z"/>
<path d="M715 1000 c-4 -7 -3 -16 3 -22 14 -14 45 -2 40 15 -6 16 -34 21 -43
7z m25 -10 c0 -5 -2 -10 -4 -10 -3 0 -8 5 -11 10 -3 6 -1 10 4 10 6 0 11 -4
11 -10z"/>
<path d="M1125 850 c10 -11 20 -20 23 -20 3 0 -3 9 -13 20 -10 11 -20 20 -23
20 -3 0 3 -9 13 -20z"/>
<path d="M1131 1567 c-1 -10 -8 -20 -18 -24 -14 -5 -13 -8 7 -15 29 -11 31 -8
21 28 -5 16 -10 21 -10 11z"/>
<path d="M546 1534 c-9 -22 -8 -24 9 -18 8 4 15 12 15 20 0 19 -16 18 -24 -2z"/>
<path d="M1532 1300 c0 -19 2 -27 5 -17 2 9 2 25 0 35 -3 9 -5 1 -5 -18z"/>
<path d="M153 1280 c0 -25 2 -35 4 -22 2 12 2 32 0 45 -2 12 -4 2 -4 -23z"/>
<path d="M1540 1135 c0 -299 -84 -590 -210 -728 -60 -66 -190 -156 -320 -223
-52 -27 -110 -63 -128 -82 l-34 -33 -39 35 c-21 20 -76 54 -121 77 -193 97
-334 210 -395 319 -76 134 -128 349 -142 585 -8 139 -8 139 -10 42 -3 -205 44
-443 116 -599 68 -145 190 -253 417 -372 49 -26 104 -60 123 -76 42 -37 54
-37 95 -2 18 16 77 52 132 81 269 142 383 262 454 476 44 129 63 255 69 438 3
97 3 177 -1 177 -3 0 -6 -52 -6 -115z"/>
</g>
</svg>
